Coordinates
version=1
nRows=10
nColumns=38
inDegrees=yes

Units are S.I. units (second, meters, Newtons, ...)
Angles are in degrees.

endheader
time	pelvis_tilt	pelvis_list	pelvis_rotation	pelvis_tx	pelvis_ty	pelvis_tz	hip_flexion_r	hip_adduction_r	hip_rotation_r	knee_angle_r	ankle_angle_r	subtalar_angle_r	mtp_angle_r	hip_flexion_l	hip_adduction_l	hip_rotation_l	knee_angle_l	ankle_angle_l	subtalar_angle_l	mtp_angle_l	lumbar_extension	lumbar_bending	lumbar_rotation	arm_flex_r	arm_add_r	arm_rot_r	elbow_flex_r	pro_sup_r	wrist_flex_r	wrist_dev_r	arm_flex_l	arm_add_l	arm_rot_l	elbow_flex_l	pro_sup_l	wrist_flex_l	wrist_dev_l
      2.00500000	      1.19535758	     -5.78734519	     85.49860729	     -0.22512029	      1.10702092	     -0.38892916	     -4.50157106	      4.61094099	     10.45326687	    -51.38219807	    -11.06466826	      0.00000000	      0.00000000	     27.37074967	     -2.68020140	     -0.98529025	    -13.12026132	     -4.90705512	      0.00000000	      0.00000000	    -12.87808426	     -5.71711418	     17.49411595	      0.00000000	      0.00000000	      0.00000000	     90.00000000	     90.00000000	      0.00000000	      0.00000000	      0.00000000	      0.00000000	      0.00000000	     90.00000000	     90.00000000	      0.00000000	      0.00000000
      2.01000000	      1.04218097	     -5.60950929	     85.33896016	     -0.22482841	      1.10469003	     -0.38850415	     -3.67551626	      4.55656055	     10.38707320	    -54.45156544	    -10.33763347	      0.00000000	      0.00000000	     27.23443166	     -2.43755445	     -1.04399793	    -13.75012892	     -5.03772812	      0.00000000	      0.00000000	    -13.12599909	     -5.98872262	     17.13886488	      0.00000000	      0.00000000	      0.00000000	     90.00000000	     90.00000000	      0.00000000	      0.00000000	      0.00000000	      0.00000000	      0.00000000	     90.00000000	     90.00000000	      0.00000000	      0.00000000
      2.01500000	      0.83880279	     -5.45802228	     85.18820597	     -0.22466216	      1.10200788	     -0.38810745	     -2.77692540	      4.39794699	     10.21062878	    -57.50201466	     -9.67052136	      0.00000000	      0.00000000	     27.16809541	     -2.12554191	     -1.11767995	    -14.61754103	     -5.03177216	      0.00000000	      0.00000000	    -13.33012941	     -6.29531285	     16.73586070	      0.00000000	      0.00000000	      0.00000000	     90.00000000	     90.00000000	      0.00000000	      0.00000000	      0.00000000	      0.00000000	      0.00000000	     90.00000000	     90.00000000	      0.00000000	      0.00000000
      2.02000000	      0.59059958	     -5.33404537	     85.05421391	     -0.22463167	      1.09902896	     -0.38772251	     -1.81059921	      4.13640489	      9.93558626	    -60.50443974	     -9.06320811	      0.00000000	      0.00000000	     27.16256050	     -1.74473730	     -1.20688956	    -15.71981703	     -4.84930921	      0.00000000	      0.00000000	    -13.49530581	     -6.63087527	     16.28668658	      0.00000000	      0.00000000	      0.00000000	     90.00000000	     90.00000000	      0.00000000	      0.00000000	      0.00000000	      0.00000000	      0.00000000	     90.00000000	     90.00000000	      0.00000000	      0.00000000
      2.02500000	      0.30295991	     -5.23828579	     84.94419473	     -0.22473820	      1.09583519	     -0.38729487	     -0.78228684	      3.77646011	      9.57665016	    -63.43468879	     -8.50564015	      0.00000000	      0.00000000	     27.20750548	     -1.29774079	     -1.31297089	    -17.05158125	     -4.45531908	      0.00000000	      0.00000000	    -13.62893202	     -6.99032871	     15.79415389	      0.00000000	      0.00000000	      0.00000000	     90.00000000	     90.00000000	      0.00000000	      0.00000000	      0.00000000	      0.00000000	      0.00000000	     90.00000000	     90.00000000	      0.00000000	      0.00000000
      2.03000000	     -0.01937964	     -5.16957023	     84.86327532	     -0.22497649	      1.09252652	     -0.38675641	      0.30044976	      3.32482403	      9.15063347	    -66.27448605	     -7.98148481	      0.00000000	      0.00000000	     27.29356506	     -0.78978096	     -1.43630371	    -18.60081600	     -3.82486467	      0.00000000	      0.00000000	    -13.74015681	     -7.36973478	     15.26226939	      0.00000000	      0.00000000	      0.00000000	     90.00000000	     90.00000000	      0.00000000	      0.00000000	      0.00000000	      0.00000000	      0.00000000	     90.00000000	     90.00000000	      0.00000000	      0.00000000
      2.03500000	     -0.37254139	     -5.12343512	     84.81324542	     -0.22533482	      1.08919857	     -0.38606280	      1.42801655	      2.78943545	      8.67559718	    -69.01169390	     -7.47185045	      0.00000000	      0.00000000	     27.41382279	     -0.22873935	     -1.57484753	    -20.34532207	     -2.94765696	      0.00000000	      0.00000000	    -13.83891704	     -7.76632780	     14.69611865	      0.00000000	      0.00000000	      0.00000000	     90.00000000	     90.00000000	      0.00000000	      0.00000000	      0.00000000	      0.00000000	      0.00000000	     90.00000000	     90.00000000	      0.00000000	      0.00000000
      2.04000000	     -0.75324822	     -5.09180177	     84.79193949	     -0.22579318	      1.08591599	     -0.38522241	      2.58952261	      2.17881256	      8.17010250	    -71.63974056	     -6.95854947	      0.00000000	      0.00000000	     27.56353482	      0.37557398	     -1.72350064	    -22.25071144	     -1.83092880	      0.00000000	      0.00000000	    -13.93495768	     -8.17837624	     14.10165408	      0.00000000	      0.00000000	      0.00000000	     90.00000000	     90.00000000	      0.00000000	      0.00000000	      0.00000000	      0.00000000	      0.00000000	     90.00000000	     90.00000000	      0.00000000	      0.00000000
      2.04500000	     -1.15843108	     -5.06438633	     84.79363703	     -0.22632366	      1.08269799	     -0.38429623	      3.77438288	      1.50180215	      7.65257199	    -74.15624174	     -6.42655769	      0.00000000	      0.00000000	     27.73768465	      1.01261567	     -1.87455416	    -24.27063380	     -0.49973590	      0.00000000	      0.00000000	    -14.03693125	     -8.60491363	     13.48538775	      0.00000000	      0.00000000	      0.00000000	     90.00000000	     90.00000000	      0.00000000	      0.00000000	      0.00000000	      0.00000000	      0.00000000	     90.00000000	     90.00000000	      0.00000000	      0.00000000
      2.05000000	     -1.58509826	     -5.03162238	     84.81050432	     -0.22689687	      1.07952904	     -0.38336327	      4.97428704	      0.76766161	      7.14073009	    -76.56107072	     -5.86552927	      0.00000000	      0.00000000	     27.92709700	      1.67226849	     -2.01912884	    -26.34930612	      1.00558304	      0.00000000	      0.00000000	    -14.15166314	     -9.04539258	     12.85400152	      0.00000000	      0.00000000	      0.00000000	     90.00000000	     90.00000000	      0.00000000	      0.00000000	      0.00000000	      0.00000000	      0.00000000	     90.00000000	     90.00000000	      0.00000000	      0.00000000
